<svg width="28" height="28" viewBox="0 0 28 28" fill="none" xmlns="http://www.w3.org/2000/svg">
<path fill-rule="evenodd" clip-rule="evenodd" d="M26 14C26 20.6274 20.6274 26 14 26C7.37258 26 2 20.6274 2 14C2 7.37258 7.37258 2 14 2C20.6274 2 26 7.37258 26 14ZM19.1421 23.3848L23.3848 19.1421L21.3669 17.1243C20.5576 19.0303 19.0303 20.5576 17.1243 21.3669L19.1421 23.3848ZM11.4329 21.5793C9.45322 20.909 7.82115 19.4848 6.87848 17.6484L5.24264 19.2843L9.48528 23.5269L11.4329 21.5793ZM6.63306 10.8757C7.44239 8.96975 8.96975 7.44239 10.8757 6.63306L9.24264 5L5 9.24264L6.63306 10.8757ZM17.6484 6.87848L19.3848 5.14214L23.6274 9.38478L21.5793 11.4329C20.909 9.45322 19.4848 7.82115 17.6484 6.87848Z" fill="#060710"/>
<path d="M10.9925 9.83805L14.1618 8L17.3311 9.83805L16.1659 10.5171L14.1618 9.35805L12.1576 10.5171L10.9925 9.83805ZM17.3311 12.1561L16.1659 11.4771L14.1618 12.6361L12.1576 11.4771L10.9925 12.1561V13.5141L12.9966 14.6732V16.9912L14.1618 17.6702L15.3269 16.9912V14.6732L17.3311 13.5141V12.1561ZM17.3311 15.8322V14.4741L16.1659 15.1532V16.5112L17.3311 15.8322ZM18.1583 16.3122L16.1542 17.4712V18.8293L19.3235 16.9912V13.3151L18.1583 13.9941V16.3122ZM16.9931 10.9971L18.1583 11.6761V13.0341L19.3235 12.3551V10.9971L18.1583 10.318L16.9931 10.9971ZM12.9966 17.9629V19.321L14.1618 20L15.3269 19.321V17.9629L14.1618 18.6419L12.9966 17.9629ZM10.9925 15.8322L12.1576 16.5112V15.1532L10.9925 14.4741V15.8322ZM12.9966 10.9971L14.1618 11.6761L15.3269 10.9971L14.1618 10.318L12.9966 10.9971ZM10.1652 11.6761L11.3304 10.9971L10.1652 10.318L9 10.9971V12.3551L10.1652 13.0341V11.6761ZM10.1652 13.9941L9 13.3151V16.9912L12.1693 18.8293V17.4712L10.1652 16.3122V13.9941Z" fill="white"/>
<rect x="1.4" y="1.4" width="25.2" height="25.2" rx="12.6" stroke="white" stroke-width="1.2"/>
</svg>
