<svg width="8" height="14" viewBox="0 0 8 14" fill="none" xmlns="http://www.w3.org/2000/svg">
<path fill-rule="evenodd" clip-rule="evenodd" d="M4.75 5.06152L7 3.74902V6.37402L4.75 5.06152ZM7 10.6865L4 12.4365L1 10.6865V7.62402L4 9.37402L7 7.62402V10.6865ZM1 3.74902L3.25 5.06152L1 6.37402V3.74902ZM4.375 5.68652L6.625 6.99902L4.375 8.31152V5.68652ZM3.625 8.31152L1.375 6.99902L3.625 5.68652V8.31152ZM6.625 3.12402L4 4.62402L1.375 3.12402L4 1.56152L6.625 3.12402ZM0.25 2.87402V11.0615L4 13.1865L7.75 11.0615V2.87402L4 0.749023L0.25 2.87402Z" fill="#5E5F64"/>
</svg>
