<svg width="10" height="10" viewBox="0 0 10 10" fill="none" xmlns="http://www.w3.org/2000/svg">
<path d="M0.834734 4.99076C0.834734 3.98519 0.834734 2.97963 0.834734 1.97406C0.834734 1.35837 1.00534 1.01384 1.4198 0.892497C1.85202 0.765898 2.29828 0.81058 2.70396 1.3034C4.32649 3.27466 5.97336 5.22599 7.61387 7.18214C7.67637 7.25683 7.72067 7.40753 7.84808 7.35583C7.96847 7.30699 7.90202 7.16616 7.90224 7.06956C7.90685 5.65792 7.90619 4.24627 7.90312 2.83463C7.90312 2.74549 7.95641 2.61998 7.84084 2.57574C7.75027 2.54091 7.69019 2.6467 7.62725 2.70058C7.13473 3.122 6.64637 3.54823 6.15515 3.97117C6.06349 4.05002 5.97227 4.17794 5.83368 4.06273C5.69355 3.9462 5.80188 3.83976 5.87139 3.73659C6.41129 2.93495 6.95096 2.1333 7.49063 1.33143C7.77681 0.906077 8.13337 0.75188 8.54761 0.875413C8.94387 0.99347 9.16535 1.33844 9.16601 1.84966C9.16755 3.00985 9.16645 4.17027 9.16645 5.33047C9.16645 6.25872 9.16711 7.18696 9.16623 8.11521C9.16579 8.62664 8.97282 8.95519 8.5952 9.09515C8.15179 9.25942 7.68427 9.1326 7.36827 8.75499C5.71087 6.77497 4.05479 4.79363 2.39805 2.81295C2.35464 2.76104 2.31582 2.70321 2.26451 2.66028C2.17723 2.58735 2.10399 2.5834 2.09719 2.72599C2.0939 2.79345 2.09587 2.86135 2.09587 2.92903C2.09587 4.3214 2.09456 5.71377 2.09828 7.10592C2.0985 7.2058 2.03776 7.34861 2.14719 7.39876C2.27196 7.45593 2.34455 7.30918 2.42722 7.23887C2.89869 6.83761 3.36381 6.4289 3.83397 6.02589C3.93024 5.94331 4.02365 5.79591 4.17518 5.93368C4.3129 6.05896 4.189 6.16519 4.12409 6.26222C3.57542 7.08117 3.02435 7.89859 2.47042 8.71382C2.2167 9.08726 1.86277 9.22394 1.4698 9.11223C1.08078 9.00184 0.838681 8.67045 0.836488 8.21005C0.831006 7.13681 0.834734 6.06356 0.834734 4.99032V4.99076Z" fill="#5E5F64"/>
</svg>
