<svg width="12" height="10" viewBox="0 0 12 10" fill="none" xmlns="http://www.w3.org/2000/svg">
<path d="M9.08665 3.0554C8.86733 2.93671 8.58534 2.93671 8.33469 3.0554L6.58012 4.03463L5.38952 4.65778L3.66628 5.63701C3.44696 5.7557 3.16498 5.7557 2.91433 5.63701L1.56707 4.86549C1.34775 4.7468 1.19109 4.50941 1.19109 4.24235V2.75867C1.19109 2.52128 1.31642 2.28389 1.56707 2.13552L2.91433 1.39368C3.13365 1.27499 3.41563 1.27499 3.66628 1.39368L5.01354 2.1652C5.23286 2.28389 5.38952 2.52128 5.38952 2.78834V3.76757L6.58012 3.11475V2.10585C6.58012 1.86846 6.4548 1.63107 6.20414 1.4827L3.69762 0.0880442C3.47829 -0.0306502 3.19631 -0.0306502 2.94566 0.0880442L0.376467 1.51238C0.125815 1.63107 0.000488281 1.86846 0.000488281 2.10585V4.89517C0.000488281 5.13255 0.125815 5.36994 0.376467 5.51831L2.91433 6.91297C3.13365 7.03166 3.41563 7.03166 3.66628 6.91297L5.38952 5.96342L6.58012 5.3106L8.30336 4.36104C8.52268 4.24235 8.80466 4.24235 9.05532 4.36104L10.4026 5.10288C10.6219 5.22158 10.7786 5.45896 10.7786 5.72603V7.20971C10.7786 7.4471 10.6532 7.68448 10.4026 7.83285L9.08665 8.57469C8.86733 8.69339 8.58534 8.69339 8.33469 8.57469L6.98743 7.83285C6.76811 7.71416 6.61145 7.47677 6.61145 7.20971V6.26015L5.42085 6.91297V7.8922C5.42085 8.12959 5.54618 8.36698 5.79683 8.51534L8.33469 9.91C8.55401 10.0287 8.836 10.0287 9.08665 9.91L11.6245 8.51534C11.8438 8.39665 12.0005 8.15926 12.0005 7.8922V5.07321C12.0005 4.83582 11.8752 4.59843 11.6245 4.45006L9.08665 3.0554Z" fill="#5E5F64"/>
</svg>
