<svg width="14" height="14" viewBox="0 0 14 14" fill="none" xmlns="http://www.w3.org/2000/svg">
<path d="M4.76498 0.721259C6.10665 0.219423 7.61674 0.218277 8.98361 0.630745C10.7629 1.18299 12.265 2.52581 13.0499 4.2112C13.2664 4.69126 13.4738 5.19195 13.4944 5.72587C12.4942 5.14612 11.3977 4.77032 10.2989 4.42774C8.54135 3.79415 6.70129 3.35418 5.03767 2.48341C4.65041 2.25197 4.15659 2.0148 4.05118 1.53245C4.00879 1.1154 4.4499 0.882809 4.76498 0.721259Z" fill="#5E5F64"/>
<path d="M0.714638 4.77709C1.10305 3.72301 1.74008 2.74454 2.60512 2.01929C2.8251 3.82842 3.59504 5.57682 4.86682 6.89214C6.3918 8.4767 8.56413 9.44944 10.7743 9.41277C11.6519 9.44027 12.5101 9.23748 13.3659 9.07363C12.5238 12.1167 9.18856 14.1367 6.09849 13.6509C4.23322 13.4126 2.51116 12.3081 1.47197 10.7487C0.299879 9.02551 0.00427684 6.73746 0.714638 4.77709Z" fill="#5E5F64"/>
<path d="M10.2983 4.42847C11.3971 4.77104 12.4936 5.14685 13.4938 5.72659L13.5614 5.76211C13.6542 6.45987 13.7218 7.17138 13.5981 7.87028C13.0951 7.65717 12.6872 7.28251 12.261 6.95139C11.4406 6.26853 10.6031 5.48713 10.2983 4.42847Z" fill="#060710"/>
</svg>
